<?xml version="1.0" encoding="utf-8" ?>
<svg baseProfile="full" height="132" version="1.1" width="320" xmlns="http://www.w3.org/2000/svg" xmlns:ev="http://www.w3.org/2001/xml-events" xmlns:xlink="http://www.w3.org/1999/xlink"><defs /><path d="M24,95 Z" fill="black" /><path d="M26,94 L27,94 Z" fill="black" /><path d="M64,93 Z" fill="black" /><path d="M67,91 Z" fill="black" /><path d="M29,91 Z" fill="black" /><path d="M24,90 Z" fill="black" /><path d="M129,87 Z" fill="black" /><path d="M22,87 Z" fill="black" /><path d="M241,86 Z" fill="black" /><path d="M200,86 Z" fill="black" /><path d="M134,86 Z" fill="black" /><path d="M131,86 L132,87 Z" fill="black" /><path d="M111,86 Z" fill="black" /><path d="M283,85 Z" fill="black" /><path d="M244,85 Z" fill="black" /><path d="M165,85 Z" fill="black" /><path d="M160,85 Z" fill="black" /><path d="M142,85 Z" fill="black" /><path d="M136,85 Z" fill="black" /><path d="M103,85 Z" fill="black" /><path d="M286,84 L286,85 Z" fill="black" /><path d="M226,84 Z" fill="black" /><path d="M204,84 Z" fill="black" /><path d="M129,84 Z" fill="black" /><path d="M301,83 Z" fill="black" /><path d="M284,83 Z" fill="black" /><path d="M241,83 Z" fill="black" /><path d="M223,83 Z" fill="black" /><path d="M200,83 Z" fill="black" /><path d="M180,83 L181,83 Z" fill="black" /><path d="M158,83 Z" fill="black" /><path d="M137,83 Z" fill="black" /><path d="M104,83 Z" fill="black" /><path d="M281,82 L280,83 L281,83 L282,82 Z" fill="black" /><path d="M245,82 Z" fill="black" /><path d="M128,82 Z" fill="black" /><path d="M107,82 Z" fill="black" /><path d="M285,81 Z" fill="black" /><path d="M268,81 Z" fill="black" /><path d="M203,81 Z" fill="black" /><path d="M283,80 Z" fill="black" /><path d="M246,80 Z" fill="black" /><path d="M143,80 Z" fill="black" /><path d="M141,80 Z" fill="black" /><path d="M19,80 Z" fill="black" /><path d="M213,79 Z" fill="black" /><path d="M17,79 Z" fill="black" /><path d="M239,78 Z" fill="black" /><path d="M113,78 Z" fill="black" /><path d="M299,77 Z" fill="black" /><path d="M227,77 Z" fill="black" /><path d="M181,77 L182,77 Z" fill="black" /><path d="M301,75 L301,76 Z" fill="black" /><path d="M167,75 L166,76 L165,76 L166,76 Z" fill="black" /><path d="M104,75 Z" fill="black" /><path d="M303,74 Z" fill="black" /><path d="M196,74 L196,75 Z" fill="black" /><path d="M172,74 L173,75 Z" fill="black" /><path d="M219,73 Z" fill="black" /><path d="M182,73 L183,74 Z" fill="black" /><path d="M170,73 Z" fill="black" /><path d="M301,72 Z" fill="black" /><path d="M297,72 L296,73 L296,74 L296,73 Z" fill="black" /><path d="M239,72 L238,73 Z" fill="black" /><path d="M222,72 L223,73 L222,74 L223,75 L222,76 L223,75 L222,74 L223,73 Z" fill="black" /><path d="M217,72 Z" fill="black" /><path d="M108,72 L106,74 Z" fill="black" /><path d="M210,71 Z" fill="black" /><path d="M173,71 L173,72 Z" fill="black" /><path d="M256,70 Z" fill="black" /><path d="M172,69 Z" fill="black" /><path d="M94,69 Z" fill="black" /><path d="M135,68 L133,70 L134,69 L135,70 L134,69 Z" fill="black" /><path d="M266,66 Z" fill="black" /><path d="M246,66 Z" fill="black" /><path d="M196,65 L197,65 Z" fill="black" /><path d="M133,65 L134,66 Z" fill="black" /><path d="M113,65 Z" fill="black" /><path d="M91,64 Z" fill="black" /><path d="M301,63 Z" fill="black" /><path d="M291,63 Z" fill="black" /><path d="M252,63 Z" fill="black" /><path d="M147,63 Z" fill="black" /><path d="M296,62 Z" fill="black" /><path d="M238,62 Z" fill="black" /><path d="M221,62 L222,63 Z" fill="black" /><path d="M218,62 L217,63 Z" fill="black" /><path d="M151,62 Z" fill="black" /><path d="M136,62 Z" fill="black" /><path d="M132,62 Z" fill="black" /><path d="M111,62 L110,63 L111,62 L112,62 Z" fill="black" /><path d="M92,62 Z" fill="black" /><path d="M212,61 Z" fill="black" /><path d="M134,61 Z" fill="black" /><path d="M255,60 Z" fill="black" /><path d="M222,60 Z" fill="black" /><path d="M152,60 Z" fill="black" /><path d="M183,59 L182,60 L180,60 L179,61 L177,61 L177,63 L175,65 L173,63 L175,65 L175,66 L174,67 L174,68 L175,69 L175,74 L176,75 L176,76 L177,77 L177,78 L179,80 L181,80 L182,81 L187,81 L188,80 L190,80 L193,77 L193,75 L191,75 L190,74 L192,76 L191,77 L190,77 L187,80 L182,80 L181,79 L180,79 L178,77 L178,76 L179,75 L178,76 L176,74 L176,72 L177,71 L190,71 L191,72 L192,71 L193,71 L194,72 L193,73 L194,72 L193,71 L193,65 L191,63 L191,62 L190,61 L190,59 L189,60 L187,60 L186,59 Z" fill="black" /><path d="M169,59 Z" fill="black" /><path d="M137,59 L136,60 L137,59 L138,60 L138,79 L137,80 L138,80 L140,82 L139,81 L139,67 L140,66 L140,64 L144,60 L145,60 L146,61 L147,60 L148,61 L149,60 L148,59 L145,59 L144,60 L142,60 L142,61 L141,62 L139,60 L140,59 L139,60 L138,59 Z" fill="black" /><path d="M107,59 Z" fill="black" /><path d="M271,58 L270,59 Z" fill="black" /><path d="M258,58 Z" fill="black" /><path d="M251,58 L250,59 L248,59 L247,60 L246,60 L245,59 L243,61 L241,59 L241,80 L242,81 L242,67 L243,66 L243,64 L247,60 L249,60 L250,61 L253,61 L252,60 L253,59 L252,59 Z" fill="black" /><path d="M206,58 L206,59 L205,60 L204,60 L203,59 L204,60 L203,61 L202,61 L201,60 L200,60 L199,59 L199,79 L198,80 L199,81 L200,81 L201,80 L200,79 L200,67 L201,66 L201,64 L203,62 L204,63 L205,62 L204,61 L205,60 L208,60 L209,61 L210,61 L210,60 L209,59 L207,59 Z" fill="black" /><path d="M177,58 L176,59 Z" fill="black" /><path d="M161,58 L160,59 L159,59 L158,60 L157,60 L156,59 L157,60 L156,61 L155,61 L154,60 L155,61 L154,62 L154,63 L153,64 L153,65 L152,66 L152,74 L153,75 L153,76 L154,77 L154,78 L155,78 L156,79 L156,80 L159,80 L160,81 L164,81 L165,80 L166,80 L167,79 L168,79 L168,78 L169,77 L170,78 L169,77 L170,76 L171,76 L173,78 L171,76 L169,76 L167,78 L166,78 L165,79 L164,79 L163,78 L164,79 L163,80 L159,80 L158,79 L161,76 L162,76 L164,74 L163,75 L162,75 L158,79 L157,79 L154,76 L154,75 L153,74 L153,72 L155,70 L159,74 L160,74 L159,74 L157,72 L158,71 L167,71 L168,72 L169,71 L170,71 L170,68 L171,67 L170,66 L170,65 L171,64 L172,65 L171,64 L170,65 L169,64 L169,63 L166,60 L164,60 L163,59 L162,59 Z" fill="black" /><path d="M296,57 Z" fill="black" /><path d="M286,57 Z" fill="black" /><path d="M266,57 L264,59 L263,59 L262,58 L261,59 L260,59 L259,60 L257,60 L257,61 L256,62 L255,62 L256,63 L255,64 L254,64 L255,65 L256,65 L257,66 L256,65 L257,64 L257,63 L259,61 L261,63 L261,64 L261,63 L260,62 L262,60 L266,60 L267,61 L266,62 L267,61 L269,63 L269,67 L270,68 L269,69 L268,69 L267,68 L266,69 L264,69 L263,70 L260,70 L259,71 L258,71 L257,72 L256,72 L255,73 L255,78 L257,80 L258,80 L259,81 L266,81 L266,80 L267,79 L269,79 L271,81 L273,81 L274,82 L274,81 L275,80 L272,80 L271,79 L271,74 L270,73 L271,72 L271,65 L270,64 L270,63 L271,62 L270,63 L269,62 L269,61 L268,61 L267,60 L266,60 L265,59 L265,58 Z" fill="black" /><path d="M222,57 Z" fill="black" /><path d="M204,57 Z" fill="black" /><path d="M185,57 L186,57 Z" fill="black" /><path d="M182,57 Z" fill="black" /><path d="M179,57 L180,58 Z" fill="black" /><path d="M158,57 Z" fill="black" /><path d="M136,57 Z" fill="black" /><path d="M121,57 Z" fill="black" /><path d="M118,57 Z" fill="black" /><path d="M115,57 Z" fill="black" /><path d="M301,56 Z" fill="black" /><path d="M298,56 Z" fill="black" /><path d="M291,56 Z" fill="black" /><path d="M268,56 L269,57 Z" fill="black" /><path d="M264,56 Z" fill="black" /><path d="M257,56 Z" fill="black" /><path d="M241,56 L242,57 Z" fill="black" /><path d="M211,56 L210,57 Z" fill="black" /><path d="M190,56 Z" fill="black" /><path d="M166,56 Z" fill="black" /><path d="M163,56 Z" fill="black" /><path d="M142,56 Z" fill="black" /><path d="M138,56 L139,57 Z" fill="black" /><path d="M134,56 Z" fill="black" /><path d="M131,56 L130,57 L130,58 L131,59 L129,61 L128,60 L126,60 L125,59 L124,59 L123,58 L122,59 L121,59 L120,60 L118,60 L117,59 L116,60 L115,59 L116,60 L115,61 L116,62 L116,63 L115,64 L117,66 L117,67 L118,68 L118,69 L119,68 L118,68 L117,67 L117,66 L116,65 L116,64 L117,63 L118,64 L118,62 L119,61 L120,61 L121,60 L122,60 L123,61 L122,62 L124,60 L125,60 L126,61 L125,62 L126,62 L127,63 L128,62 L129,63 L129,68 L128,69 L124,69 L123,70 L120,70 L119,71 L117,71 L115,73 L115,78 L116,79 L116,80 L117,80 L118,81 L124,81 L125,80 L126,80 L127,79 L128,79 L128,78 L129,77 L130,78 L130,80 L131,81 L132,81 L133,82 L134,81 L134,80 L135,79 L134,80 L132,80 L131,79 L131,78 L132,77 L133,78 L134,77 L133,76 L133,75 L133,76 L132,77 L131,76 L131,75 L130,74 L131,73 L132,73 L131,72 L131,68 L130,67 L131,66 L130,65 L130,63 L129,62 L130,61 L130,60 L131,59 L132,60 L130,58 L130,57 L131,56 L134,59 Z" fill="black" /><path d="M284,55 Z" fill="black" /><path d="M111,55 Z" fill="black" /><path d="M288,53 L286,55 Z" fill="black" /><path d="M295,52 Z" fill="black" /><path d="M224,52 L223,53 L221,53 L220,54 L219,53 L219,54 L217,56 L216,56 L216,57 L214,59 L213,59 L212,58 L212,59 L213,59 L214,60 L214,62 L213,63 L213,67 L212,68 L213,69 L213,71 L214,72 L214,74 L216,76 L216,77 L218,79 L219,79 L221,81 L228,81 L229,80 L231,80 L234,77 L235,77 L236,78 L235,79 L236,78 L237,78 L236,78 L235,77 L235,76 L236,75 L237,76 L237,75 L236,74 L236,73 L233,73 L234,73 L235,74 L234,75 L234,76 L232,78 L231,78 L230,79 L229,79 L228,80 L223,80 L222,79 L223,78 L222,79 L220,79 L216,75 L216,74 L215,73 L215,71 L214,70 L214,63 L215,62 L215,61 L216,60 L216,59 L217,58 L218,59 L219,59 L218,59 L217,58 L221,54 L224,54 L225,53 L226,53 L227,54 L229,54 L230,55 L231,55 L234,58 L233,59 L234,58 L235,59 L235,60 L234,61 L235,60 L237,60 L236,59 L236,58 L237,57 L236,58 L234,56 L234,55 L233,54 L231,54 L230,53 L227,53 L226,52 Z" fill="black" /><path d="M217,52 Z" fill="black" /><path d="M292,51 L293,52 Z" fill="black" /><path d="M108,51 Z" fill="black" /><path d="M95,51 L96,52 L96,53 L95,54 L94,54 L93,53 L94,54 L93,55 L92,55 L91,54 L90,54 L91,54 L92,55 L92,56 L91,57 L90,56 L91,57 L90,58 L90,59 L89,60 L89,61 L88,62 L88,71 L89,72 L89,73 L88,74 L89,75 L90,75 L91,76 L91,77 L90,78 L91,77 L92,78 L92,79 L93,79 L94,80 L96,80 L97,81 L102,81 L103,80 L104,81 L105,80 L106,80 L108,78 L109,79 L109,78 L110,77 L111,78 L110,77 L111,76 L111,73 L110,73 L110,74 L109,75 L109,76 L107,78 L106,78 L105,77 L106,78 L105,79 L104,79 L103,80 L98,80 L96,78 L95,79 L91,75 L92,74 L91,74 L90,73 L90,70 L89,69 L89,68 L90,67 L90,66 L89,65 L89,63 L90,62 L90,60 L92,58 L93,59 L92,58 L92,57 L93,56 L94,57 L93,56 L94,55 L95,55 L96,54 L100,54 L101,53 L102,53 L103,54 L105,54 L110,59 L110,60 L108,62 L110,60 L111,60 L113,58 L112,59 L109,56 L109,55 L108,55 L107,54 L108,53 L107,54 L106,54 L105,53 L102,53 L101,52 L99,52 L98,51 L97,51 L96,52 Z" fill="black" /><path d="M88,51 Z" fill="black" /><path d="M294,50 Z" fill="black" /><path d="M219,50 Z" fill="black" /><path d="M216,50 Z" fill="black" /><path d="M90,50 Z" fill="black" /><path d="M96,49 Z" fill="black" /><path d="M284,48 L283,49 L283,50 L282,51 L281,50 L280,51 L281,52 L280,53 L280,55 L279,56 L279,57 L278,58 L279,59 L278,60 L275,60 L278,60 L279,61 L279,80 L281,80 L280,79 L280,64 L281,63 L281,61 L282,60 L283,61 L284,60 L290,60 L291,61 L292,60 L293,61 L293,75 L294,76 L294,80 L296,80 L297,81 L300,81 L301,80 L302,80 L303,79 L302,78 L300,80 L297,80 L295,78 L295,77 L296,76 L295,76 L294,75 L294,61 L295,60 L298,60 L299,61 L300,60 L301,60 L302,61 L302,60 L303,59 L302,58 L303,57 L302,58 L303,59 L302,60 L301,60 L300,59 L299,60 L298,60 L297,59 L296,60 L295,60 L294,59 L294,55 L295,54 L293,54 L293,57 L292,58 L293,59 L292,60 L289,60 L288,59 L289,58 L288,57 L289,58 L287,60 L285,60 L284,59 L283,59 L282,60 L281,60 L280,59 L281,58 L280,57 L281,56 L281,55 L282,54 L281,53 L283,51 L284,52 L284,53 L284,52 L285,51 L289,51 L290,52 L289,51 L290,50 L289,51 L288,50 L284,50 L283,49 Z" fill="black" /><path d="M217,48 Z" fill="black" /><path d="M89,48 L88,49 Z" fill="black" /><path d="M19,48 Z" fill="black" /><path d="M63,35 Z" fill="black" /><path d="M37,35 L36,36 L35,36 L36,37 L35,38 L34,38 L33,37 L34,38 L31,41 L30,41 L30,42 L29,43 L28,43 L27,44 L26,44 L25,43 L26,44 L25,45 L24,45 L22,47 L22,48 L20,50 L21,51 L21,53 L20,54 L20,55 L19,56 L19,59 L18,60 L17,59 L18,60 L18,61 L17,62 L17,68 L16,69 L17,69 L18,70 L18,71 L19,72 L19,73 L20,74 L20,76 L19,77 L20,77 L21,78 L21,82 L22,83 L22,84 L24,86 L25,86 L26,87 L27,87 L28,88 L27,89 L28,88 L29,88 L32,91 L31,92 L32,93 L33,92 L34,93 L35,93 L37,95 L58,95 L59,94 L60,94 L64,90 L65,90 L68,87 L69,87 L70,86 L71,86 L73,84 L74,85 L74,86 L74,85 L73,84 L73,83 L74,82 L75,82 L74,81 L74,80 L75,79 L76,80 L75,79 L75,78 L76,77 L75,76 L75,75 L76,74 L76,72 L78,70 L78,67 L79,66 L79,64 L78,63 L78,62 L77,61 L77,59 L78,58 L77,59 L76,58 L76,57 L75,56 L76,55 L75,54 L75,52 L74,51 L74,49 L73,48 L73,47 L71,45 L70,45 L69,44 L68,44 L65,41 L64,41 L60,37 L61,36 L60,37 L59,37 L58,36 L59,35 L58,36 L57,36 L56,35 L55,36 L38,36 Z" fill="black" /><path d="M61,34 Z" fill="black" /><path d="M34,34 Z" fill="black" /><path d="M63,33 Z" fill="black" /><path d="M34,32 Z" fill="black" /></svg>