<?xml version="1.0" encoding="UTF-8"?>
<svg version="1.1" xmlns="http://www.w3.org/2000/svg" width="320" height="132">
<path d="M0 0 C105.6 0 211.2 0 320 0 C320 43.56 320 87.12 320 132 C214.4 132 108.8 132 0 132 C0 88.44 0 44.88 0 0 Z " fill="#FDFDFD" transform="translate(0,0)"/>
<path d="M0 0 C0.78117187 -0.01546875 1.56234375 -0.0309375 2.3671875 -0.046875 C7.76007325 -0.01055927 10.67034164 1.06929613 15 4.5 C15.89203125 5.09941406 16.7840625 5.69882812 17.703125 6.31640625 C18.96382812 7.18072266 18.96382812 7.18072266 20.25 8.0625 C21.10078125 8.64128906 21.9515625 9.22007813 22.828125 9.81640625 C27.00691468 13.05571983 27.5235145 16.4473991 28.4375 21.34375 C28.94566991 23.77244046 28.94566991 23.77244046 31 26.5 C31.53320969 32.04538074 30.28100597 35.49933307 28 40.5 C27.68623334 41.89103221 27.39467738 43.28725208 27.125 44.6875 C25.8261913 49.08901836 24.798682 50.08265691 21 52.5 C20.01 53.16 19.02 53.82 18 54.5 C17.01 55.16 16.02 55.82 15 56.5 C14.31421875 57.18707031 13.6284375 57.87414062 12.921875 58.58203125 C8.74801819 61.32182228 5.14980722 61.22535027 0.25 61.1875 C-1.09698975 61.18314941 -1.09698975 61.18314941 -2.47119141 61.17871094 C-9.96051224 60.93011411 -13.85580021 58.9538044 -19 53.5 C-20.11375 52.88125 -21.2275 52.2625 -22.375 51.625 C-25.64998796 48.97381927 -26.25071013 46.84546 -27.33984375 42.8671875 C-27.97497026 40.5897516 -28.81042795 38.54065037 -29.75 36.375 C-31.23414836 32.47425405 -31.0210017 29.58400679 -30 25.5 C-29.67 24.86578125 -29.34 24.2315625 -29 23.578125 C-27.92520898 21.3445749 -27.56781723 19.44071717 -27.1875 17 C-26.48997375 13.69621286 -26.18015171 12.68515592 -23.75 10.1875 C-22.8425 9.630625 -21.935 9.07375 -21 8.5 C-20.030625 7.84 -19.06125 7.18 -18.0625 6.5 C-16.5465625 5.51 -16.5465625 5.51 -15 4.5 C-14.13246094 3.8090625 -13.26492187 3.118125 -12.37109375 2.40625 C-8.05069237 -0.03680431 -4.86805358 -0.0963971 0 0 Z " fill="#32549F" transform="translate(48,35.5)"/>
<path d="M0 0 C2.9375 2.375 2.9375 2.375 5 5 C5.66 5.66 6.32 6.32 7 7 C8.65 5.68 10.3 4.36 12 3 C22 7 22 7 24.70703125 8.1328125 C26.90320225 9.1179138 26.90320225 9.1179138 29 9 C29 7.35 29 5.7 29 4 C32.16115776 5.36983503 32.9927092 5.9890638 35 9 C35.66 8.34 36.32 7.68 37 7 C40.125 6.875 40.125 6.875 43 7 C43 7.33 43 7.66 43 8 C42.05125 8.268125 41.1025 8.53625 40.125 8.8125 C36.74732727 9.74986588 36.74732727 9.74986588 35 13 C34.70008931 15.58885171 34.49134775 18.09149082 34.375 20.6875 C34.33632812 21.38939453 34.29765625 22.09128906 34.2578125 22.81445312 C34.1637666 24.54254655 34.0808032 26.27123675 34 28 C33.34 28 32.68 28 32 28 C31.67 22.39 31.34 16.78 31 11 C26.68816247 14.4441157 26.68816247 14.4441157 26.75 18.25 C26.8325 19.1575 26.915 20.065 27 21 C26.34 21 25.68 21 25 21 C25.495 23.97 25.495 23.97 26 27 C26.99 27.33 27.98 27.66 29 28 C27.824375 27.7525 27.824375 27.7525 26.625 27.5 C24.11791961 26.9376293 24.11791961 26.9376293 22 27 C21.505 27.495 21.505 27.495 21 28 C19.31391034 28.07205511 17.62499341 28.08386068 15.9375 28.0625 C15.01839844 28.05347656 14.09929687 28.04445313 13.15234375 28.03515625 C12.44207031 28.02355469 11.73179688 28.01195313 11 28 C10.34 26.68 9.68 25.36 9 24 C8.443125 24.28875 7.88625 24.5775 7.3125 24.875 C6.549375 25.24625 5.78625 25.6175 5 26 C4.29875 26.37125 3.5975 26.7425 2.875 27.125 C-1.91284812 28.58217117 -7.35835918 29.37916991 -11.9453125 26.984375 C-14.59666007 24.85817356 -15.92096768 23.23709696 -17 20 C-17.99368412 8.71109686 -17.99368412 8.71109686 -15.25 4.375 C-10.89381034 -0.2232002 -6.15413855 -1.10994285 0 0 Z " fill="#E1E1E1" transform="translate(106,53)"/>
<path d="M0 0 C1.65 0 3.3 0 5 0 C4.75 1.875 4.75 1.875 4 4 C1.9375 5.25 1.9375 5.25 0 6 C0 6.66 0 7.32 0 8 C-0.99 8.33 -1.98 8.66 -3 9 C-3 9.99 -3 10.98 -3 12 C-2.34 11.67 -1.68 11.34 -1 11 C-1.5259375 11.8971875 -1.5259375 11.8971875 -2.0625 12.8125 C-3.33304698 15.10813214 -3.33304698 15.10813214 -2 18 C-2.309375 18.721875 -2.61875 19.44375 -2.9375 20.1875 C-4.90797443 25.40346173 -4.66232178 30.10573952 -2.5625 35.1875 C0.06097235 39.93028988 4.07613518 42.04406061 9 44 C12.35254676 44.85639285 12.35254676 44.85639285 15 45 C14.34 45.66 13.68 46.32 13 47 C13.99 47.33 14.98 47.66 16 48 C16.33 46.68 16.66 45.36 17 44 C20.3 44.99 23.6 45.98 27 47 C26.01 47.66 25.02 48.32 24 49 C23.67 49.99 23.34 50.98 23 52 C22 55 22 55 19 57 C11.78497546 58.19961692 2.59276436 58.64743592 -4.109375 55.57421875 C-6.2621995 53.84082385 -8.10636816 52.00760042 -10 50 C-11.11375 49.38125 -12.2275 48.7625 -13.375 48.125 C-16.64998796 45.47381927 -17.25071013 43.34546 -18.33984375 39.3671875 C-18.97497026 37.0897516 -19.81042795 35.04065037 -20.75 32.875 C-22.23189163 28.94408746 -22.06633433 26.11300383 -21 22 C-19.4375 18.5625 -19.4375 18.5625 -18 16 C-17.34 16 -16.68 16 -16 16 C-16.020625 15.113125 -16.04125 14.22625 -16.0625 13.3125 C-14.79741646 9.36841602 -14.02779339 9.12291725 -10.5 7.25 C-9.6853125 6.86328125 -8.870625 6.4765625 -8.03125 6.078125 C-5.84222147 5.16808925 -5.84222147 5.16808925 -5 3 C-4.34 3 -3.68 3 -3 3 C-2.67 2.34 -2.34 1.68 -2 1 C-1.34 1.33 -0.68 1.66 0 2 C0 1.34 0 0.68 0 0 Z " fill="#2F51A3" transform="translate(39,39)"/>
<path d="M0 0 C2.27533928 1.45150954 4.00944029 3.15162312 6 5 C6.99 4.67 7.98 4.34 9 4 C9.66 4.33 10.32 4.66 11 5 C10.67 5.66 10.34 6.32 10 7 C10.66 7 11.32 7 12 7 C12.33 7.66 12.66 8.32 13 9 C14.65 8.01 16.3 7.02 18 6 C18.99 6.66 19.98 7.32 21 8 C20.05125 8.268125 19.1025 8.53625 18.125 8.8125 C14.74732727 9.74986588 14.74732727 9.74986588 13 13 C12.70008931 15.58885171 12.49134775 18.09149082 12.375 20.6875 C12.33632812 21.38939453 12.29765625 22.09128906 12.2578125 22.81445312 C12.1637666 24.54254655 12.0808032 26.27123675 12 28 C11.34 28 10.68 28 10 28 C9.67 25.69 9.34 23.38 9 21 C7.84188612 23.94729537 7.84188612 23.94729537 8 27 C7.236875 26.79375 6.47375 26.5875 5.6875 26.375 C2.78114056 25.66608797 2.78114056 25.66608797 0 28 C-4.07463524 28.66624845 -8.24356703 28.94496094 -11.953125 26.94921875 C-14.0950226 25.18683214 -15.7539484 23.49210321 -17 21 C-17.17522676 18.73354234 -17.26728256 16.46027146 -17.3125 14.1875 C-17.34988281 12.96417969 -17.38726562 11.74085937 -17.42578125 10.48046875 C-16.92420123 6.38039721 -15.92888145 4.85707 -13 2 C-8.94990017 -0.6333653 -4.68827679 -0.84649442 0 0 Z " fill="#D8D8D8" transform="translate(231,53)"/>
<path d="M0 0 C2.48443203 0.65305071 3.48774622 1.52448401 5.05078125 3.5390625 C5.05078125 4.1990625 5.05078125 4.8590625 5.05078125 5.5390625 C5.71078125 5.5390625 6.37078125 5.5390625 7.05078125 5.5390625 C7.05078125 3.8890625 7.05078125 2.2390625 7.05078125 0.5390625 C7.38078125 0.5390625 7.71078125 0.5390625 8.05078125 0.5390625 C8.17453125 1.3434375 8.29828125 2.1478125 8.42578125 2.9765625 C8.63203125 3.8221875 8.83828125 4.6678125 9.05078125 5.5390625 C9.71078125 5.8690625 10.37078125 6.1990625 11.05078125 6.5390625 C11.05078125 6.8690625 11.05078125 7.1990625 11.05078125 7.5390625 C11.38078125 5.2290625 11.71078125 2.9190625 12.05078125 0.5390625 C12.71078125 0.5390625 13.37078125 0.5390625 14.05078125 0.5390625 C14.38078125 1.1990625 14.71078125 1.8590625 15.05078125 2.5390625 C15.71078125 1.8790625 16.37078125 1.2190625 17.05078125 0.5390625 C20.17578125 0.4140625 20.17578125 0.4140625 23.05078125 0.5390625 C23.05078125 0.8690625 23.05078125 1.1990625 23.05078125 1.5390625 C22.10203125 1.8071875 21.15328125 2.0753125 20.17578125 2.3515625 C16.79810852 3.28892838 16.79810852 3.28892838 15.05078125 6.5390625 C14.75087056 9.12791421 14.542129 11.63055332 14.42578125 14.2265625 C14.38710937 14.92845703 14.3484375 15.63035156 14.30859375 16.35351562 C14.21454785 18.08160905 14.13158445 19.81029925 14.05078125 21.5390625 C13.39078125 21.5390625 12.73078125 21.5390625 12.05078125 21.5390625 C10.56578125 18.0740625 10.56578125 18.0740625 9.05078125 14.5390625 C8.72078125 14.5390625 8.39078125 14.5390625 8.05078125 14.5390625 C7.76203125 15.4878125 7.47328125 16.4365625 7.17578125 17.4140625 C6.05078125 20.5390625 6.05078125 20.5390625 4.05078125 22.5390625 C-0.92212847 22.84690929 -5.52679822 22.64924438 -9.51171875 19.5390625 C-11.42242573 15.5515001 -13.06401504 12.03142404 -12.94921875 7.5390625 C-10.37168806 1.43555909 -6.34363219 -0.24103611 0 0 Z " fill="#A1A1A1" transform="translate(186.94921875,59.4609375)"/>
<path d="M0 0 C2.47067185 1.07359365 3.93896286 2.21748139 6 4 C5.67 4.66 5.34 5.32 5 6 C3.5459375 4.9790625 3.5459375 4.9790625 2.0625 3.9375 C-2.42052162 1.37317526 -6.10870767 1.73120612 -11 3 C-14.43981395 4.42079272 -15.69919378 5.56434962 -17.8125 8.625 C-19.31565438 12.89712299 -19.74391339 16.5205215 -19 21 C-16.77561281 25.27403857 -16.77561281 25.27403857 -13 28 C-13.804375 27.05125 -14.60875 26.1025 -15.4375 25.125 C-18.91226469 21.02655959 -19.45069795 18.49851503 -19 13 C-17.63264967 9.36611788 -15.71216964 6.61325719 -12.75 4.0625 C-7.52466772 2.04362162 -3.51076962 2.35252731 1.5 4.5 C2.7375 5.2425 2.7375 5.2425 4 6 C3.34 7.32 2.68 8.64 2 10 C1.25234375 9.86980469 0.5046875 9.73960938 -0.265625 9.60546875 C-6.39748575 8.53907907 -6.39748575 8.53907907 -11.75 11.0625 C-13.27355647 14.64285771 -13.19943377 16.32173642 -12 20 C-11.06402685 22.01951062 -11.06402685 22.01951062 -9 23 C-6.25013411 23.13094599 -3.72629969 23.14128616 -1 23 C0.32 23 1.64 23 3 23 C4.8125 24.8125 4.8125 24.8125 6 27 C5 30 5 30 1.9375 31.6875 C-2.89115157 33.53027111 -7.29906246 34.06266395 -12.14453125 32.15625 C-17.4006274 29.26978532 -20.30643924 25.76236713 -22 20 C-22.8673277 14.68637168 -21.99541267 10.49311901 -19 6 C-13.02483982 0.10450862 -8.24203839 -0.89259769 0 0 Z " fill="#CCE3F7" transform="translate(56,50)"/>
<path d="M0 0 C3.16115776 1.36983503 3.9927092 1.9890638 6 5 C6.66 4.34 7.32 3.68 8 3 C11.125 2.875 11.125 2.875 14 3 C14 3.33 14 3.66 14 4 C13.05125 4.268125 12.1025 4.53625 11.125 4.8125 C7.74732727 5.74986588 7.74732727 5.74986588 6 9 C5.70008931 11.58885171 5.49134775 14.09149082 5.375 16.6875 C5.33632812 17.38939453 5.29765625 18.09128906 5.2578125 18.81445312 C5.1637666 20.54254655 5.0808032 22.27123675 5 24 C4.34 24 3.68 24 3 24 C2.67 18.39 2.34 12.78 2 7 C-2.31183753 10.4441157 -2.31183753 10.4441157 -2.25 14.25 C-2.12625 15.61125 -2.12625 15.61125 -2 17 C-2.66 17 -3.32 17 -4 17 C-3.67 18.98 -3.34 20.96 -3 23 C-2.01 23.33 -1.02 23.66 0 24 C-0.78375 23.835 -1.5675 23.67 -2.375 23.5 C-4.88208039 22.9376293 -4.88208039 22.9376293 -7 23 C-7.33 23.33 -7.66 23.66 -8 24 C-9.64230364 24.1245486 -11.29052276 24.17568524 -12.9375 24.1875 C-13.83339844 24.20167969 -14.72929688 24.21585938 -15.65234375 24.23046875 C-18 24 -18 24 -20 22 C-20.375 19.6875 -20.375 19.6875 -20 17 C-18.70647667 15.30225062 -17.37482707 13.63260714 -16 12 C-16 11.01 -16 10.02 -16 9 C-14.02 8.67 -12.04 8.34 -10 8 C-9.67 8.99 -9.34 9.98 -9 11 C-6.98491642 11.73323796 -6.98491642 11.73323796 -5 12 C-5.96776098 8.20452079 -5.96776098 8.20452079 -8 5 C-9.51928038 4.92820036 -11.04167482 4.91607993 -12.5625 4.9375 C-13.80193359 4.95103516 -13.80193359 4.95103516 -15.06640625 4.96484375 C-16.02353516 4.98224609 -16.02353516 4.98224609 -17 5 C-16.67 4.34 -16.34 3.68 -16 3 C-10.85214499 2.79812333 -6.73592802 2.70379247 -2 5 C-1.34 5 -0.68 5 0 5 C0 3.35 0 1.7 0 0 Z " fill="#8C8C8C" transform="translate(135,57)"/>
<path d="M0 0 C0.33 0.66 0.66 1.32 1 2 C1.66 2 2.32 2 3 2 C3 5.3 3 8.6 3 12 C3.99 12 4.98 12 6 12 C6 13.98 6 15.96 6 18 C7.98 18.66 9.96 19.32 12 20 C12 21.32 12 22.64 12 24 C12.83144531 23.98839844 13.66289062 23.97679688 14.51953125 23.96484375 C15.60621094 23.95582031 16.69289063 23.94679688 17.8125 23.9375 C18.89144531 23.92589844 19.97039063 23.91429688 21.08203125 23.90234375 C24 24 24 24 27 25 C26.75 26.875 26.75 26.875 26 29 C23.953125 30.1328125 23.953125 30.1328125 22 31 C23.10408203 30.85691406 23.10408203 30.85691406 24.23046875 30.7109375 C25.20628906 30.60007812 26.18210937 30.48921875 27.1875 30.375 C28.63189453 30.20097656 28.63189453 30.20097656 30.10546875 30.0234375 C33.24075323 29.99805058 35.19486535 30.65640717 38 32 C38.495 31.505 38.495 31.505 39 31 C38.01 30.67 37.02 30.34 36 30 C37.32 29.01 38.64 28.02 40 27 C40.66 27.33 41.32 27.66 42 28 C41.67 28.66 41.34 29.32 41 30 C41.99 30.33 42.98 30.66 44 31 C40.72593625 34.42997155 37.47961342 34.47794661 32.99267578 34.62011719 C19.48087996 34.64473332 19.48087996 34.64473332 14.625 30.75 C13.40306972 29.5132883 12.19292088 28.26471705 11 27 C9.88625 26.38125 8.7725 25.7625 7.625 25.125 C3.80836123 22.03534004 3.2717506 18.60252599 2 14 C1.45146351 12.57786836 0.88963268 11.16076878 0.3125 9.75 C-0.83307018 6.47694233 -1.41211295 4.3999318 -1 1 C-0.67 0.67 -0.34 0.34 0 0 Z " fill="#2D5097" transform="translate(18,62)"/>
<path d="M0 0 C1.43655854 -0.08131463 2.8744483 -0.13933559 4.3125 -0.1875 C5.51326172 -0.23970703 5.51326172 -0.23970703 6.73828125 -0.29296875 C9 0 9 0 10.76171875 1.0078125 C13.02268115 4.64532299 12.47594545 9.10892691 12.52734375 13.28320312 C12.58701296 15.19437283 12.78498668 17.1000265 13 19 C13.99 19.66 14.98 20.32 16 21 C15.21625 20.835 14.4325 20.67 13.625 20.5 C11.11791961 19.9376293 11.11791961 19.9376293 9 20 C8.67 20.66 8.34 21.32 8 22 C0.73542601 22.48430493 0.73542601 22.48430493 -2.5625 20.3125 C-4 18 -4 18 -4.0625 15.4375 C-2.5978884 12.07750867 -1.38547738 11.41061558 2 10 C4.992405 9.48372242 7.97061225 9.19139923 11 9 C10.01 6.69 9.02 4.38 8 2 C5.03 2 2.06 2 -1 2 C-0.67 1.34 -0.34 0.68 0 0 Z " fill="#9B9B9B" transform="translate(259,60)"/>
<path d="M0 0 C2.125 0.4140625 2.125 0.4140625 4.625 1.9765625 C6.125 4.4140625 6.125 4.4140625 7.125 11.4140625 C1.515 11.4140625 -4.095 11.4140625 -9.875 11.4140625 C-9.875 13.0640625 -9.875 14.7140625 -9.875 16.4140625 C-11.71126701 13.71366983 -11.87097623 12.30340889 -11.75 8.9765625 C-9.9930692 1.82334426 -7.21183157 -0.45073947 0 0 Z " fill="#FAFAFA" transform="translate(163.875,59.5859375)"/>
<path d="M0 0 C0.78117187 -0.01546875 1.56234375 -0.0309375 2.3671875 -0.046875 C7.76233042 -0.01054407 10.66375396 1.07632552 15 4.5 C15.89203125 5.07621094 16.7840625 5.65242188 17.703125 6.24609375 C18.54359375 6.80425781 19.3840625 7.36242188 20.25 7.9375 C21.10078125 8.49308594 21.9515625 9.04867187 22.828125 9.62109375 C25.28597152 11.74739622 26.05158685 13.4281952 27 16.5 C26.01 16.995 26.01 16.995 25 17.5 C24.505 15.52 24.505 15.52 24 13.5 C23.360625 13.37625 22.72125 13.2525 22.0625 13.125 C21.381875 12.91875 20.70125 12.7125 20 12.5 C19.505 11.51 19.505 11.51 19 10.5 C18.01 10.17 17.02 9.84 16 9.5 C15.505 8.51 15.505 8.51 15 7.5 C14.01 6.84 13.02 6.18 12 5.5 C11.505 5.005 11.505 5.005 11 4.5 C9.51361008 4.34344973 8.02050873 4.24933057 6.52734375 4.18359375 C5.17866211 4.12075195 5.17866211 4.12075195 3.80273438 4.05664062 C2.85720703 4.01732422 1.91167969 3.97800781 0.9375 3.9375 C-0.01189453 3.89431641 -0.96128906 3.85113281 -1.93945312 3.80664062 C-4.29281353 3.70020724 -6.64628354 3.59818992 -9 3.5 C-9 4.16 -9 4.82 -9 5.5 C-10.175625 5.62375 -10.175625 5.62375 -11.375 5.75 C-12.674375 6.12125 -12.674375 6.12125 -14 6.5 C-14.433125 7.428125 -14.433125 7.428125 -14.875 8.375 C-16 10.5 -16 10.5 -19.5625 11.8125 C-21.2640625 12.6478125 -21.2640625 12.6478125 -23 13.5 C-24.0615942 17.08863524 -24.0615942 17.08863524 -24 20.5 C-24.99 20.17 -25.98 19.84 -27 19.5 C-26.63265306 13.13265306 -26.63265306 13.13265306 -23.8125 10.3125 C-22.884375 9.714375 -21.95625 9.11625 -21 8.5 C-20.030625 7.84 -19.06125 7.18 -18.0625 6.5 C-16.5465625 5.51 -16.5465625 5.51 -15 4.5 C-13.69869141 3.46359375 -13.69869141 3.46359375 -12.37109375 2.40625 C-8.05069237 -0.03680431 -4.86805358 -0.0963971 0 0 Z " fill="#41598F" transform="translate(48,35.5)"/>
<path d="M0 0 C1.2375 0.7425 1.2375 0.7425 2.5 1.5 C1.84 2.82 1.18 4.14 0.5 5.5 C-0.62148438 5.30470703 -0.62148438 5.30470703 -1.765625 5.10546875 C-7.89748575 4.03907907 -7.89748575 4.03907907 -13.25 6.5625 C-14.77416317 10.14428346 -14.60215089 11.799922 -13.5 15.5 C-12.52651373 17.78480253 -12.52651373 17.78480253 -11.5 19.5 C-15.375 17.75 -15.375 17.75 -16.5 15.5 C-16.86846649 11.00470886 -17.06340691 8.55920499 -14.9375 4.5625 C-11.74361231 1.85997965 -9.65153123 1.57283388 -5.5 1.5 C-2.5625 2.4375 -2.5625 2.4375 -0.5 3.5 C-0.5 2.84 -0.5 2.18 -0.5 1.5 C-7.88114869 0.89351976 -7.88114869 0.89351976 -14.625 3.375 C-17.56928351 6.71185464 -17.78341922 9.01075153 -17.71875 13.46484375 C-17.39920564 16.43774757 -16.38589752 18.20998159 -14.5 20.5 C-11.07976892 23.06517331 -7.64876946 22.72629652 -3.5 22.5 C-2.51 22.17 -1.52 21.84 -0.5 21.5 C-0.17 22.16 0.16 22.82 0.5 23.5 C-3.4672735 25.48363675 -8.1868254 25.04751158 -12.5 24.5 C-15.76275969 22.89746577 -17.73017874 20.54975626 -19.875 17.625 C-21.24491124 12.96730178 -21.05023195 9.03521138 -18.8125 4.75 C-13.87070308 -2.1952281 -7.65767396 -3.28186027 0 0 Z " fill="#D3E3F5" transform="translate(57.5,54.5)"/>
<path d="M0 0 C2 1 2 1 3 3 C4.093125 2.9175 5.18625 2.835 6.3125 2.75 C10 3 10 3 11.9375 4.75 C13 7 13 7 13 11 C11.20994059 11.36220266 9.41787943 11.71452469 7.625 12.0625 C6.62726563 12.25972656 5.62953125 12.45695312 4.6015625 12.66015625 C2 13 2 13 0 12 C0 10.68 0 9.36 0 8 C-0.66 8 -1.32 8 -2 8 C-1.125 1.125 -1.125 1.125 0 0 Z " fill="#F7F7F7" transform="translate(257,58)"/>
<path d="M0 0 C3.96 0 7.92 0 12 0 C12 0.66 12 1.32 12 2 C12.66 2 13.32 2 14 2 C14.66 3.65 15.32 5.3 16 7 C10.2704001 10.11391299 5.37605497 10.76121798 -1 9 C-2.796875 7.4453125 -2.796875 7.4453125 -4 6 C-3.67 5.34 -3.34 4.68 -3 4 C-1.68 4.66 -0.36 5.32 1 6 C1.66 5.01 2.32 4.02 3 3 C2.01 2.67 1.02 2.34 0 2 C0 1.34 0 0.68 0 0 Z " fill="#C3C3C3" transform="translate(158,72)"/>
<path d="M0 0 C5.28 0 10.56 0 16 0 C16 0.99 16 1.98 16 3 C15.01 3.66 14.02 4.32 13 5 C13.66 5.33 14.32 5.66 15 6 C13.9375 7.5 13.9375 7.5 12 9 C7.86622159 9.53586016 5.69919964 9.40166788 2.0625 7.3125 C0 5 0 5 0 0 Z " fill="#F9F9F9" transform="translate(177,71)"/>
<path d="M0 0 C3 2 3 2 3.4765625 4.05859375 C3.52554688 4.84363281 3.57453125 5.62867187 3.625 6.4375 C3.82026381 9.25952696 4.09380431 11.28141293 5 14 C2.49936635 13.53691969 0.97626943 12.98324901 -1.125 11.5 C-5.266633 9.339148 -9.38848575 9.2596775 -14 9 C-13.01 9.99 -12.02 10.98 -11 12 C-11.66 13.32 -12.32 14.64 -13 16 C-16.875 14.125 -16.875 14.125 -18 13 C-18 11.35 -18 9.7 -18 8 C-12.39 8 -6.78 8 -1 8 C-1.33 6.02 -1.66 4.04 -2 2 C-1.34 1.34 -0.68 0.68 0 0 Z " fill="#EFEFEF" transform="translate(172,63)"/>
<path d="M0 0 C0.3125 3.3125 0.3125 3.3125 0 7 C-2.91181601 9.73534231 -4.76303537 9.98420236 -8.75 10.25 C-12 10 -12 10 -13 9 C-13.1875 6.5625 -13.1875 6.5625 -13 4 C-10.71151961 1.71151961 -9.60592283 1.5103024 -6.5 0.875 C-5.7059375 0.70742187 -4.911875 0.53984375 -4.09375 0.3671875 C-2 0 -2 0 0 0 Z " fill="#F4F4F4" transform="translate(130,70)"/>
<path d="M0 0 C0.33 0 0.66 0 1 0 C1.185625 1.2065625 1.185625 1.2065625 1.375 2.4375 C1.58125 3.283125 1.7875 4.12875 2 5 C2.66 5.33 3.32 5.66 4 6 C4 6.33 4 6.66 4 7 C4.33 4.69 4.66 2.38 5 0 C5.66 0 6.32 0 7 0 C7.33 0.66 7.66 1.32 8 2 C8.66 1.34 9.32 0.68 10 0 C13.125 -0.125 13.125 -0.125 16 0 C16 0.33 16 0.66 16 1 C15.05125 1.268125 14.1025 1.53625 13.125 1.8125 C9.74732727 2.74986588 9.74732727 2.74986588 8 6 C7.70008931 8.58885171 7.49134775 11.09149082 7.375 13.6875 C7.31699219 14.7403418 7.31699219 14.7403418 7.2578125 15.81445312 C7.1637666 17.54254655 7.0808032 19.27123675 7 21 C6.34 21 5.68 21 5 21 C2 14.375 2 14.375 2 11 C2.33 10.67 2.66 10.34 3 10 C2.01 10 1.02 10 0 10 C-0.95024979 6.30458414 -0.95024979 3.69541586 0 0 Z " fill="#959595" transform="translate(194,60)"/>
<path d="M0 0 C1.19109375 -0.00386719 1.19109375 -0.00386719 2.40625 -0.0078125 C4.5 0.125 4.5 0.125 6.5 1.125 C6.5 1.785 6.5 2.445 6.5 3.125 C5.90832031 3.01800781 5.31664063 2.91101562 4.70703125 2.80078125 C-0.50662364 1.99373382 -0.50662364 1.99373382 -5.5 3.4375 C-7.58978966 4.9752393 -7.58978966 4.9752393 -8.5 7.125 C-8.86423273 11.56863935 -8.99284472 14.0964545 -7.0625 18.125 C-3.77185176 20.69331082 -1.6845895 20.57660089 2.37890625 20.3984375 C4.68457109 20.17033081 4.68457109 20.17033081 7.5 19.125 C8.16 20.445 8.82 21.765 9.5 23.125 C8.84 23.785 8.18 24.445 7.5 25.125 C6.51 24.795 5.52 24.465 4.5 24.125 C4.83 23.465 5.16 22.805 5.5 22.125 C4.84 22.455 4.18 22.785 3.5 23.125 C-0.73390162 23.53210593 -3.01588352 23.38075965 -6.8125 21.375 C-10.8390786 18.00391094 -11.34716223 16.478706 -11.9375 11.25 C-11.83897037 6.45787732 -9.85822174 4.40326408 -6.5 1.125 C-4.13386544 -0.05806728 -2.63219264 -0.00854608 0 0 Z " fill="#566583" transform="translate(50.5,54.875)"/>
<path d="M0 0 C0.99 0.33 1.98 0.66 3 1 C3.33 1.99 3.66 2.98 4 4 C4.73605469 3.90460938 5.47210938 3.80921875 6.23046875 3.7109375 C7.20628906 3.60007812 8.18210937 3.48921875 9.1875 3.375 C10.15042969 3.25898437 11.11335938 3.14296875 12.10546875 3.0234375 C15.24075323 2.99805058 17.19486535 3.65640717 20 5 C20.33 4.67 20.66 4.34 21 4 C20.01 3.67 19.02 3.34 18 3 C19.32 2.01 20.64 1.02 22 0 C22.66 0.33 23.32 0.66 24 1 C23.67 1.66 23.34 2.32 23 3 C23.99 3.33 24.98 3.66 26 4 C23.36332125 6.81594303 21.10986481 7.25113635 17.41015625 7.43359375 C15.62768695 7.45082208 13.84499698 7.45157571 12.0625 7.4375 C10.72155273 7.4674707 10.72155273 7.4674707 9.35351562 7.49804688 C4.95694127 7.4947829 2.64049586 7.41500294 -1.12890625 4.97265625 C-1.74636719 4.32167969 -2.36382812 3.67070313 -3 3 C-2.67 2.34 -2.34 1.68 -2 1 C-1.34 1.33 -0.68 1.66 0 2 C0 1.34 0 0.68 0 0 Z " fill="#3E599F" transform="translate(36,89)"/>
<path d="M0 0 C-0.33 0.99 -0.66 1.98 -1 3 C-0.12085312 5.6569191 -0.12085312 5.6569191 1 8 C-1.88211302 8.96070434 -3.69850044 9.10581883 -6.6875 9.0625 C-7.89986328 9.04896484 -7.89986328 9.04896484 -9.13671875 9.03515625 C-10.05904297 9.01775391 -10.05904297 9.01775391 -11 9 C-11.35430394 5.81126451 -11.25953249 4.38410809 -9.4375 1.6875 C-6.185351 -0.56398777 -3.86806995 -0.29754384 0 0 Z " fill="#F6F6F6" transform="translate(188,61)"/>
<path d="M0 0 C3.4375 0.4375 3.4375 0.4375 5.375 1.625 C6.76601983 3.99791618 6.65667317 5.73436424 6.4375 8.4375 C4.7875 8.4375 3.1375 8.4375 1.4375 8.4375 C1.1075 7.4475 0.7775 6.4575 0.4375 5.4375 C-1.8725 6.0975 -4.1825 6.7575 -6.5625 7.4375 C-6.8925 6.4475 -7.2225 5.4575 -7.5625 4.4375 C-5.11203627 1.30090643 -4.03256326 0.49522707 0 0 Z " fill="#F4F4F4" transform="translate(123.5625,60.5625)"/>
<path d="M0 0 C0.33 0.66 0.66 1.32 1 2 C7.27 2 13.54 2 20 2 C20 2.66 20 3.32 20 4 C16.29194662 5.18955096 12.80738269 5.06510844 8.9375 5 C3.87598752 4.88452369 3.87598752 4.88452369 -1 6 C-1.99 5.34 -2.98 4.68 -4 4 C-4 3.34 -4 2.68 -4 2 C-2.68 1.34 -1.36 0.68 0 0 Z " fill="#E5EDF7" transform="translate(37,32)"/>
<path d="M0 0 C2 3 2 3 1.4375 6.9375 C-0.18105583 12.54098127 -4.00671689 14.4482479 -8.8125 17.25 C-9.864375 17.8275 -10.91625 18.405 -12 19 C-12.125 14.25 -12.125 14.25 -11 12 C-8.35139573 11.40644386 -5.70802678 11.25790731 -3 11 C-3.33 10.01 -3.66 9.02 -4 8 C-3.525625 7.608125 -3.05125 7.21625 -2.5625 6.8125 C-0.64820367 4.59191626 -0.38733012 2.86624291 0 0 Z " fill="#3B5796" transform="translate(74,73)"/>
<path d="M0 0 C2.99324263 1.0975223 3.84610901 1.67682892 5.25 4.625 C5.4975 5.40875 5.745 6.1925 6 7 C1.5734494 10.07399347 1.5734494 10.07399347 -0.9375 9.75 C-1.618125 9.5025 -2.29875 9.255 -3 9 C-4.99788438 8.65421232 -6.99759451 8.31856451 -9 8 C-9 7.67 -9 7.34 -9 7 C-5.37 7 -1.74 7 2 7 C2 6.01 2 5.02 2 4 C1.01 4 0.02 4 -1 4 C-4 4 -7 4 -10 4 C-10 3.01 -10 2.02 -10 1 C-9.36191406 1.01160156 -8.72382812 1.02320312 -8.06640625 1.03515625 C-7.24011719 1.04417969 -6.41382813 1.05320312 -5.5625 1.0625 C-4.32693359 1.07990234 -4.32693359 1.07990234 -3.06640625 1.09765625 C-1.00836062 1.23267348 -1.00836062 1.23267348 0 0 Z " fill="#C3D9ED" transform="translate(56,72)"/>
<path d="M0 0 C0.79148438 -0.02578125 1.58296875 -0.0515625 2.3984375 -0.078125 C4.625 0.25 4.625 0.25 6.40234375 1.53515625 C8.36079034 4.28198709 7.80945512 6.99129285 7.625 10.25 C5.645 10.25 3.665 10.25 1.625 10.25 C2.285 9.59 2.945 8.93 3.625 8.25 C2.965 6.6 2.305 4.95 1.625 3.25 C1.955 2.92 2.285 2.59 2.625 2.25 C-1.80164564 1.94504515 -1.80164564 1.94504515 -5.75 3.75 C-6.28625 4.245 -6.8225 4.74 -7.375 5.25 C-5.28715148 0.93511306 -4.86629856 0.09449123 0 0 Z " fill="#B3B3B3" transform="translate(184.375,59.75)"/>
<path d="M0 0 C0.66 0 1.32 0 2 0 C2.15855469 0.65226562 2.31710938 1.30453125 2.48046875 1.9765625 C4.05148985 7.86138187 5.74423023 11.62920943 10 16 C9.34 16.33 8.68 16.66 8 17 C5.96855359 16.06553465 3.96466413 15.06775224 2 14 C2 12.68 2 11.36 2 10 C1.34 10 0.68 10 0 10 C0 6.7 0 3.4 0 0 Z " fill="#385996" transform="translate(32,65)"/>
<path d="M0 0 C0.33 0.66 0.66 1.32 1 2 C1.66 2 2.32 2 3 2 C3 5.3 3 8.6 3 12 C3.66 12 4.32 12 5 12 C5 14.97 5 17.94 5 21 C5.66 21.33 6.32 21.66 7 22 C6.01 22 5.02 22 4 22 C3.15774 19.44013121 2.32601449 16.87760985 1.5 14.3125 C1.14228516 13.2306543 1.14228516 13.2306543 0.77734375 12.12695312 C-0.43349936 8.33874397 -1.43147035 5.02962488 -1 1 C-0.67 0.67 -0.34 0.34 0 0 Z " fill="#405D94" transform="translate(18,62)"/>
<path d="M0 0 C0 0.66 0 1.32 0 2 C-0.99 2.495 -0.99 2.495 -2 3 C-1.34 3.33 -0.68 3.66 0 4 C-0.33 4.66 -0.66 5.32 -1 6 C-2.04220703 5.49339844 -2.04220703 5.49339844 -3.10546875 4.9765625 C-6.48215879 3.83732834 -8.78686975 3.9875681 -12.3125 4.375 C-13.91544922 4.54128906 -13.91544922 4.54128906 -15.55078125 4.7109375 C-16.35902344 4.80632812 -17.16726562 4.90171875 -18 5 C-18 4.01 -18 3.02 -18 2 C-15.7505194 1.66317938 -13.50039296 1.33066999 -11.25 1 C-9.99703125 0.814375 -8.7440625 0.62875 -7.453125 0.4375 C-4 0 -4 0 0 0 Z " fill="#2D51A5" transform="translate(57,89)"/>
<path d="M0 0 C0.33 0 0.66 0 1 0 C1 1.98 1 3.96 1 6 C3.64 6 6.28 6 9 6 C9 6.33 9 6.66 9 7 C6.36 7 3.72 7 1 7 C1.14019692 9.81288705 1.28687955 12.62516885 1.4375 15.4375 C1.47681641 16.23994141 1.51613281 17.04238281 1.55664062 17.86914062 C1.4054296 21.75239561 1.4054296 21.75239561 3 25 C4.99958364 25.04080783 7.00045254 25.04254356 9 25 C9 25.66 9 26.32 9 27 C5.625 27.125 5.625 27.125 2 27 C0 25 0 25 -0.22705078 23.12060547 C-0.21657715 22.37697754 -0.20610352 21.63334961 -0.1953125 20.8671875 C-0.18886719 20.06152344 -0.18242187 19.25585938 -0.17578125 18.42578125 C-0.15902344 17.58402344 -0.14226562 16.74226563 -0.125 15.875 C-0.11597656 15.02550781 -0.10695313 14.17601563 -0.09765625 13.30078125 C-0.07405647 11.20040116 -0.03818483 9.10016556 0 7 C-1.32 6.67 -2.64 6.34 -4 6 C-2.68 6 -1.36 6 0 6 C0 4.02 0 2.04 0 0 Z " fill="#2A2A2A" transform="translate(294,54)"/>
<path d="M0 0 C2.1491917 3.22378756 3.024994 5.98414648 4.125 9.6875 C4.47820313 10.86699219 4.83140625 12.04648438 5.1953125 13.26171875 C5.46085937 14.16535156 5.72640625 15.06898437 6 16 C5.34 16.66 4.68 17.32 4 18 C3.34 18 2.68 18 2 18 C0.414131 14.828262 0.62133555 11.36486178 0.4375 7.875 C0.39431641 7.12089844 0.35113281 6.36679688 0.30664062 5.58984375 C0.2005168 3.72678112 0.09974999 1.86341476 0 0 Z " fill="#E4F0F9" transform="translate(17,68)"/>
<path d="M0 0 C0.66 0.33 1.32 0.66 2 1 C0.5 7 0.5 7 -1 13 C-0.34 13.33 0.32 13.66 1 14 C0.01 15.485 0.01 15.485 -1 17 C-1.33 16.67 -1.66 16.34 -2 16 C-2.66 16.66 -3.32 17.32 -4 18 C-4.66 17.34 -5.32 16.68 -6 16 C-5.34 15.01 -4.68 14.02 -4 13 C-3.40790557 11.12244362 -3.40790557 11.12244362 -3 9.125 C-2.25960996 5.94014762 -1.31448907 3.00454644 0 0 Z " fill="#E4F0F9" transform="translate(78,69)"/>
<path d="M0 0 C0.33 0 0.66 0 1 0 C1 1.65 1 3.3 1 5 C5.95 5 10.9 5 16 5 C16 3.35 16 1.7 16 0 C18 2 18 2 18 6 C12.39 6 6.78 6 1 6 C1 7.65 1 9.3 1 11 C-1.79908133 8.20091867 -1.72362983 5.86918237 -2 2 C-1.34 1.34 -0.68 0.68 0 0 Z " fill="#4D4D4D" transform="translate(176,65)"/>
<path d="M0 0 C0.66 0 1.32 0 2 0 C2.66 2.97 3.32 5.94 4 9 C-1.61 9 -7.22 9 -13 9 C-13 10.65 -13 12.3 -13 14 C-14.98362069 11.08291076 -14.9876191 9.87619096 -14.625 6.25 C-14.41875 5.1775 -14.2125 4.105 -14 3 C-13.67 3 -13.34 3 -13 3 C-13 4.65 -13 6.3 -13 8 C-8.05 8 -3.1 8 2 8 C1.34 5.36 0.68 2.72 0 0 Z " fill="#3F3F3F" transform="translate(167,62)"/>
<path d="M0 0 C1.21236328 0.04060547 1.21236328 0.04060547 2.44921875 0.08203125 C3.06410156 0.11683594 3.67898437 0.15164062 4.3125 0.1875 C4.6425 0.8475 4.9725 1.5075 5.3125 2.1875 C4.36375 2.166875 3.415 2.14625 2.4375 2.125 C-0.59416283 1.96198174 -0.59416283 1.96198174 -2.6875 3.1875 C-3.04162344 4.51546291 -3.37271554 5.84966607 -3.6875 7.1875 C-4.6775 8.6725 -4.6775 8.6725 -5.6875 10.1875 C-6.3475 10.1875 -7.0075 10.1875 -7.6875 10.1875 C-8.05443548 3.70497312 -8.05443548 3.70497312 -6.46875 1.46875 C-4.16661524 -0.1871715 -2.80531917 -0.1219704 0 0 Z " fill="#A8A8A8" transform="translate(161.6875,59.8125)"/>
<path d="M0 0 C1.43088528 2.86177057 0.59991697 4.93375773 0 8 C2.64 8 5.28 8 8 8 C8 8.33 8 8.66 8 9 C5.36 9 2.72 9 0 9 C0 15.6 0 22.2 0 29 C-0.33 29 -0.66 29 -1 29 C-1 22.4 -1 15.8 -1 9 C-2.32 8.67 -3.64 8.34 -5 8 C-3.68 8 -2.36 8 -1 8 C-1.020625 6.865625 -1.04125 5.73125 -1.0625 4.5625 C-1 1 -1 1 0 0 Z " fill="#161616" transform="translate(281,52)"/>
<path d="M0 0 C1.5625 1.8125 1.5625 1.8125 3 4 C2.67 4.99 2.34 5.98 2 7 C1.01 6.67 0.02 6.34 -1 6 C-4.89459074 5.78918149 -4.89459074 5.78918149 -8 7 C-8 6.34 -8 5.68 -8 5 C-8.99 4.67 -9.98 4.34 -11 4 C-9.39125 3.566875 -9.39125 3.566875 -7.75 3.125 C-4.90599636 2.27179891 -2.56491017 1.4363497 0 0 Z " fill="#385BA1" transform="translate(60,57)"/>
<path d="M0 0 C5.28 0 10.56 0 16 0 C12 2 12 2 9.4375 1.9375 C6.94290378 1.74000951 6.94290378 1.74000951 5.375 3.4375 C4.92125 3.953125 4.4675 4.46875 4 5 C3.01 5.33 2.02 5.66 1 6 C0.67 5.67 0.34 5.34 0 5 C0 3.35 0 1.7 0 0 Z " fill="#EBEBEB" transform="translate(177,71)"/>
<path d="M0 0 C2.35171131 0.59861742 4.6859378 1.26924352 7 2 C7.33 2.66 7.66 3.32 8 4 C7.05125 4.0825 6.1025 4.165 5.125 4.25 C1.89538209 4.65074923 1.89538209 4.65074923 0.625 7.0625 C0.41875 7.701875 0.2125 8.34125 0 9 C-1.70840281 7.36587557 -2.93453047 6.13093906 -4 4 C-2.68 2.68 -1.36 1.36 0 0 Z " fill="#D9D9D9" transform="translate(117,56)"/>
<path d="M0 0 C0.8353125 1.1446875 0.8353125 1.1446875 1.6875 2.3125 C4.00891612 5.01036198 5.80333269 6.48158303 9 8 C10.32 8 11.64 8 13 8 C13 8.66 13 9.32 13 10 C5.72727273 10.48484848 5.72727273 10.48484848 2.5625 8.375 C0.71234171 5.5627594 0.30249079 3.32739873 0 0 Z " fill="#466097" transform="translate(42,64)"/>
<path d="M0 0 C0 0.99 0 1.98 0 3 C-5.94 3 -11.88 3 -18 3 C-14.43886472 1.21943236 -12.78745217 0.68677198 -9 0.375 C-8.154375 0.30023438 -7.30875 0.22546875 -6.4375 0.1484375 C-4.29506522 0.01796872 -2.14640371 0 0 0 Z " fill="#395194" transform="translate(57,36)"/>
<path d="M0 0 C2 1 2 1 3 3 C3.66 3.33 4.32 3.66 5 4 C3.79180633 7.624581 3.19658087 7.40170957 0 9 C-0.66 8.67 -1.32 8.34 -2 8 C-1.125 1.125 -1.125 1.125 0 0 Z " fill="#D8D8D8" transform="translate(257,58)"/>
<path d="M0 0 C0.66 0 1.32 0 2 0 C1.74279326 1.58560393 1.46861201 3.16845924 1.1875 4.75 C1.03667969 5.63171875 0.88585937 6.5134375 0.73046875 7.421875 C-0.05414248 10.1910911 -1.14595359 11.8259401 -3 14 C-3.33 11.36 -3.66 8.72 -4 6 C-3.01 6 -2.02 6 -1 6 C-0.67 4.02 -0.34 2.04 0 0 Z " fill="#E3EFF7" transform="translate(20,49)"/>
<path d="M0 0 C2.96175123 0.61277612 4.38058783 1.25372522 7 3 C6.34 4.32 5.68 5.64 5 7 C3.0625 6.3125 3.0625 6.3125 1 5 C0.25 2.375 0.25 2.375 0 0 Z " fill="#F8F8F8" transform="translate(154,72)"/>
<path d="M0 0 C1.2065625 0.0309375 1.2065625 0.0309375 2.4375 0.0625 C2.7675 0.7225 3.0975 1.3825 3.4375 2.0625 C2.4784375 2.495625 2.4784375 2.495625 1.5 2.9375 C-0.71456079 3.89073451 -0.71456079 3.89073451 -1.5625 6.0625 C-2.54270375 7.0819119 -3.54053008 8.08496356 -4.5625 9.0625 C-3.56521739 0.08695652 -3.56521739 0.08695652 0 0 Z " fill="#B7B7B7" transform="translate(285.5625,49.9375)"/>
<path d="M0 0 C0 3 0 3 -1 5 C-2.8125 5.75 -2.8125 5.75 -5 6 C-7.25 5.0625 -7.25 5.0625 -9 4 C-9 3.34 -9 2.68 -9 2 C-6.03 1.34 -3.06 0.68 0 0 Z " fill="#3F5AA5" transform="translate(57,81)"/>
<path d="M0 0 C0.66 0.33 1.32 0.66 2 1 C2.17835515 5.54805635 1.99785435 8.8794254 0 13 C-0.33 13 -0.66 13 -1 13 C-1.07654536 8.48382401 -1.10228696 4.40914783 0 0 Z " fill="#4A5C8C" transform="translate(77,61)"/>
<path d="M0 0 C-0.33 0.66 -0.66 1.32 -1 2 C-2.32 2 -3.64 2 -5 2 C-5 2.99 -5 3.98 -5 5 C-6.65 5.33 -8.3 5.66 -10 6 C-9.75 4.125 -9.75 4.125 -9 2 C-6.04454879 -0.11103658 -3.56144099 -0.19785783 0 0 Z " fill="#3E568A" transform="translate(44,36)"/>
<path d="M0 0 C0.66 0.33 1.32 0.66 2 1 C2.99 1 3.98 1 5 1 C5 1.99 5 2.98 5 4 C2.04335481 5.4783226 -0.74229737 5.06032783 -4 5 C-2.68 3.35 -1.36 1.7 0 0 Z " fill="#F1F1F1" transform="translate(162,75)"/>
<path d="M0 0 C0.66 1.32 1.32 2.64 2 4 C0.68 4 -0.64 4 -2 4 C-2 4.66 -2 5.32 -2 6 C-3.65 6.33 -5.3 6.66 -7 7 C-2.25 1.125 -2.25 1.125 0 0 Z " fill="#DDE9F3" transform="translate(67,88)"/>
<path d="M0 0 C0.66 0.33 1.32 0.66 2 1 C2.625 3.5625 2.625 3.5625 3 6 C2.01 6 1.02 6 0 6 C0.33 7.98 0.66 9.96 1 12 C-1.29633824 8.55549263 -1.54016485 6.06187717 -2 2 C-1.34 2 -0.68 2 0 2 C0 1.34 0 0.68 0 0 Z " fill="#E1EEF2" transform="translate(76,47)"/>
<path d="M0 0 C0.66 0.99 1.32 1.98 2 3 C-1.625 6 -1.625 6 -5 6 C-5 5.34 -5 4.68 -5 4 C-6.32 3.67 -7.64 3.34 -9 3 C-7.88625 2.87625 -6.7725 2.7525 -5.625 2.625 C-1.96896323 2.3534187 -1.96896323 2.3534187 0 0 Z " fill="#E8E8E8" transform="translate(129,78)"/>
<path d="M0 0 C0 2.31 0 4.62 0 7 C-1.9375 6.25 -1.9375 6.25 -4 5 C-4.75 2.875 -4.75 2.875 -5 1 C-2 0 -2 0 0 0 Z " fill="#F1F1F1" transform="translate(270,70)"/>
<path d="M0 0 C1.98 1.65 3.96 3.3 6 5 C5.01 5.66 4.02 6.32 3 7 C1.35 6.01 -0.3 5.02 -2 4 C-1.34 3.67 -0.68 3.34 0 3 C0 2.01 0 1.02 0 0 Z " fill="#F0F0F0" transform="translate(129,56)"/>
<path d="M0 0 C2 3 2 3 2 5 C2.66 5 3.32 5 4 5 C3.67 5.66 3.34 6.32 3 7 C-0.465 5.02 -0.465 5.02 -4 3 C-2.68 2.01 -1.36 1.02 0 0 Z " fill="#465997" transform="translate(28,83)"/>
<path d="M0 0 C0.9075 0.103125 1.815 0.20625 2.75 0.3125 C2.110625 0.580625 1.47125 0.84875 0.8125 1.125 C-1.58131686 2.19917752 -1.58131686 2.19917752 -2.25 5.3125 C-3.9 5.3125 -5.55 5.3125 -7.25 5.3125 C-4.05 0.38942308 -4.05 0.38942308 0 0 Z " fill="#415B98" transform="translate(50.25,57.6875)"/>
<path d="M0 0 C0.33 0 0.66 0 1 0 C1 1.98 1 3.96 1 6 C3.64 6 6.28 6 9 6 C9 6.33 9 6.66 9 7 C6.36 7 3.72 7 1 7 C0.67 7.66 0.34 8.32 0 9 C0 8.34 0 7.68 0 7 C-1.32 6.67 -2.64 6.34 -4 6 C-2.68 6 -1.36 6 0 6 C0 4.02 0 2.04 0 0 Z " fill="#181818" transform="translate(294,54)"/>
<path d="M0 0 C2.9719385 1.12451727 5.33440687 2.22293791 8 4 C8.1875 7.125 8.1875 7.125 8 10 C7.608125 9.46375 7.21625 8.9275 6.8125 8.375 C4.6244612 5.50791468 2.32120704 2.76035432 0 0 Z " fill="#355091" transform="translate(56,53)"/>
<path d="M0 0 C1.32 0.33 2.64 0.66 4 1 C2.35 2.65 0.7 4.3 -1 6 C-1.99 5.34 -2.98 4.68 -4 4 C-2.68 3.34 -1.36 2.68 0 2 C0 1.34 0 0.68 0 0 Z " fill="#415D9D" transform="translate(39,50)"/>
<path d="M0 0 C0.33 0 0.66 0 1 0 C1.185625 1.2065625 1.185625 1.2065625 1.375 2.4375 C1.58125 3.283125 1.7875 4.12875 2 5 C2.66 5.33 3.32 5.66 4 6 C3.34 7.32 2.68 8.64 2 10 C1.34 10 0.68 10 0 10 C-0.95024979 6.30458414 -0.95024979 3.69541586 0 0 Z " fill="#F4F4F4" transform="translate(194,60)"/>
<path d="M0 0 C1.98 0.495 1.98 0.495 4 1 C3.67 1.99 3.34 2.98 3 4 C2.34 4 1.68 4 1 4 C0.67 5.65 0.34 7.3 0 9 C-1.15941038 5.52176885 -0.70820884 3.54104422 0 0 Z " fill="#314F92" transform="translate(33,54)"/>
<path d="M0 0 C1.2065625 0.0309375 1.2065625 0.0309375 2.4375 0.0625 C2.4375 2.0425 2.4375 4.0225 2.4375 6.0625 C0 5.25 0 5.25 -2.5625 4.0625 C-2.8925 3.0725 -3.2225 2.0825 -3.5625 1.0625 C-2.5625 0.0625 -2.5625 0.0625 0 0 Z " fill="#40609E" transform="translate(58.5625,46.9375)"/>
<path d="M0 0 C0 0.66 0 1.32 0 2 C-6.625 3.25 -6.625 3.25 -10 1 C-6.61981469 -0.04005702 -3.5219721 -0.08004482 0 0 Z " fill="#35518F" transform="translate(49,48)"/>
<path d="M0 0 C2 2 2 2 2.125 4.625 C2.08375 5.40875 2.0425 6.1925 2 7 C1.01 7.495 1.01 7.495 0 8 C-0.38063221 5.6739143 -0.71269945 3.33944736 -1 1 C-0.67 0.67 -0.34 0.34 0 0 Z " fill="#445687" transform="translate(18,62)"/>
<path d="M0 0 C-0.3125 1.9375 -0.3125 1.9375 -1 4 C-1.99 4.33 -2.98 4.66 -4 5 C-4 4.34 -4 3.68 -4 3 C-4.99 2.67 -5.98 2.34 -7 2 C-2.25 0 -2.25 0 0 0 Z " fill="#3A55B7" transform="translate(56,59)"/>
<path d="M0 0 C0.66 0.33 1.32 0.66 2 1 C2 1.99 2 2.98 2 4 C3.32 4.33 4.64 4.66 6 5 C3.36 5 0.72 5 -2 5 C-1.34 3.35 -0.68 1.7 0 0 Z " fill="#F7F7F7" transform="translate(283,55)"/>
<path d="M0 0 C0.66 0 1.32 0 2 0 C1.42655063 2.86724686 1.1385485 3.8614515 -1 6 C-1.66 5.67 -2.32 5.34 -3 5 C-1.125 1.125 -1.125 1.125 0 0 Z " fill="#A8A8A8" transform="translate(192,76)"/>
<path d="M0 0 C1.32 0.66 2.64 1.32 4 2 C1.77810176 4.22189824 -0.08482708 4.92598892 -3 6 C-2 4 -1 2 0 0 Z " fill="#F0F0F0" transform="translate(170,76)"/>
<path d="M0 0 C0.66 0 1.32 0 2 0 C2 2.31 2 4.62 2 7 C1.01 6.34 0.02 5.68 -1 5 C-0.67 3.35 -0.34 1.7 0 0 Z " fill="#294EAE" transform="translate(62,67)"/>
</svg>
